<svg id="Flat" xmlns="http://www.w3.org/2000/svg" xmlns:xlink="http://www.w3.org/1999/xlink" viewBox="0 0 512 512"><defs><linearGradient id="linear-gradient" x1="256" y1="488" x2="256" y2="24" gradientUnits="userSpaceOnUse"><stop offset="0" stop-color="#ffc70d"/><stop offset="1" stop-color="#e42e3d"/></linearGradient></defs><path d="M488,304c0,128.13-103.87,184-232,184S24,432.13,24,304,127.87,24,256,24,488,175.87,488,304Z" style="fill:url(#linear-gradient)"/><path d="M256,456C133.254,456,32.839,404.679,24.611,287.724,24.25,293.179,24,298.616,24,304c0,128.13,103.87,184,232,184s232-55.87,232-184c0-5.384-.25-10.821-.611-16.276C479.161,404.679,378.746,456,256,456Z" style="fill:#f89f00"/><path d="M256,456C133.254,456,32.839,404.679,24.611,287.724,24.25,293.179,24,298.616,24,304c0,128.13,103.87,184,232,184s232-55.87,232-184c0-5.384-.25-10.821-.611-16.276C479.161,404.679,378.746,456,256,456Z" style="fill:#f89f00"/><ellipse cx="256" cy="264" rx="32" ry="48" style="fill:#483d23"/><path d="M215.992,192a7.961,7.961,0,0,1-3.57-.844l-64-32a8,8,0,1,1,7.156-14.312l64,32A8,8,0,0,1,215.992,192Z" style="fill:#483d23"/><path d="M296.008,192a8,8,0,0,1-3.586-15.156l64-32a8,8,0,1,1,7.156,14.312l-64,32A7.961,7.961,0,0,1,296.008,192Z" style="fill:#483d23"/><path d="M284.436,285.951C279.151,272.965,268.455,264,256,264s-23.151,8.965-28.436,21.951c4.776,13.893,13.925,23.828,24.729,25.7a19.918,19.918,0,0,0,7.414,0C270.511,309.779,279.66,299.844,284.436,285.951Z" style="fill:#ef5267"/><circle cx="184" cy="216" r="24" style="fill:#fff"/><circle cx="184" cy="216" r="8" style="fill:#483d23"/><circle cx="328" cy="216" r="24" style="fill:#fff"/><circle cx="328" cy="216" r="8" style="fill:#483d23"/></svg>