<svg id="Flat" xmlns="http://www.w3.org/2000/svg" viewBox="0 0 512 512"><path d="M488,304c0,128.13-103.87,184-232,184S24,432.13,24,304,127.87,24,256,24,488,175.87,488,304Z" style="fill:#ffc70d"/><path d="M256,456C133.254,456,32.839,404.679,24.611,287.724,24.25,293.179,24,298.616,24,304c0,128.13,103.87,184,232,184s232-55.87,232-184c0-5.384-.25-10.821-.611-16.276C479.161,404.679,378.746,456,256,456Z" style="fill:#f89f00"/><path d="M256,288a40.047,40.047,0,0,1-40-40,8,8,0,0,1,16,0,24,24,0,0,0,48,0,8,8,0,0,1,16,0A40.047,40.047,0,0,1,256,288Z" style="fill:#b46d2f"/><path d="M448,152H64a8,8,0,0,0,0,16H448a8,8,0,0,0,0-16Z" style="fill:#483d23"/><path d="M120,152H232a0,0,0,0,1,0,0v16a48,48,0,0,1-48,48H168a48,48,0,0,1-48-48V152A0,0,0,0,1,120,152Z" style="fill:#483d23"/><path d="M184,152l15.361,61.444A47.85,47.85,0,0,1,184,216H168l-16-64Z" style="fill:#918b7b"/><path d="M328,152h16a48,48,0,0,1,48,48v16a0,0,0,0,1,0,0H280a0,0,0,0,1,0,0V200A48,48,0,0,1,328,152Z" transform="translate(672 368) rotate(-180)" style="fill:#483d23"/><path d="M328,152l-15.361,61.444A47.85,47.85,0,0,0,328,216h16l16-64Z" style="fill:#918b7b"/></svg>