<svg id="Flat" xmlns="http://www.w3.org/2000/svg" viewBox="0 0 512 512"><path d="M488,304c0,128.13-103.87,184-232,184S24,432.13,24,304,127.87,24,256,24,488,175.87,488,304Z" style="fill:#ffc70d"/><path d="M256,456C133.254,456,32.839,404.679,24.611,287.724,24.25,293.179,24,298.616,24,304c0,128.13,103.87,184,232,184s232-55.87,232-184c0-5.384-.25-10.821-.611-16.276C479.161,404.679,378.746,456,256,456Z" style="fill:#f89f00"/><path d="M128,464.287a261.141,261.141,0,0,0,48,15.465V216H128Z" style="fill:#3db4d4"/><path d="M384,464.287V216H336V479.752A261.141,261.141,0,0,0,384,464.287Z" style="fill:#3db4d4"/><path d="M152,224c-18.776,0-35.786-16.469-37.661-18.348a8,8,0,0,1,11.306-11.327C129.474,198.127,141.678,208,152,208s22.526-9.869,26.355-13.671a8,8,0,0,1,11.306,11.327C187.786,207.531,170.776,224,152,224Z" style="fill:#b46d2f"/><path d="M360,224c-18.776,0-35.786-16.469-37.661-18.348a8,8,0,0,1,11.306-11.327C337.474,198.127,349.678,208,360,208s22.526-9.869,26.355-13.671a8,8,0,0,1,11.306,11.327C395.786,207.531,378.776,224,360,224Z" style="fill:#b46d2f"/><path d="M280,248a8,8,0,0,1-8-8,16,16,0,0,0-32,0,8,8,0,0,1-16,0,32,32,0,0,1,64,0A8,8,0,0,1,280,248Z" style="fill:#b46d2f"/></svg>