<svg id="Flat" xmlns="http://www.w3.org/2000/svg" viewBox="0 0 512 512"><path d="M488,304c0,128.13-103.87,184-232,184S24,432.13,24,304,127.87,24,256,24,488,175.87,488,304Z" style="fill:#ffc70d"/><path d="M256,456C133.254,456,32.839,404.679,24.611,287.724,24.25,293.179,24,298.616,24,304c0,128.13,103.87,184,232,184s232-55.87,232-184c0-5.384-.25-10.821-.611-16.276C479.161,404.679,378.746,456,256,456Z" style="fill:#f89f00"/><path d="M352,176H320a8,8,0,0,1,0-16h32a8,8,0,0,1,0,16Z" style="fill:#483d23"/><path d="M192,176H160a8,8,0,0,1,0-16h32a8,8,0,0,1,0,16Z" style="fill:#483d23"/><path d="M303.992,272a7.992,7.992,0,0,1-4.43-1.344L280,257.617l-19.562,13.039a7.981,7.981,0,0,1-8.876,0L232,257.617l-19.562,13.039a8,8,0,1,1-8.876-13.312l24-16a7.981,7.981,0,0,1,8.876,0L256,254.383l19.562-13.039a7.981,7.981,0,0,1,8.876,0l24,16A8,8,0,0,1,303.992,272Z" style="fill:#b46d2f"/><path d="M168,240a8,8,0,0,1-5.656-13.656L172.688,216l-10.344-10.344a8,8,0,0,1,11.312-11.312l16,16a8,8,0,0,1,0,11.312l-16,16A7.971,7.971,0,0,1,168,240Z" style="fill:#b46d2f"/><path d="M344,240a7.971,7.971,0,0,1-5.656-2.344l-16-16a8,8,0,0,1,0-11.312l16-16a8,8,0,0,1,11.312,11.312L339.312,216l10.344,10.344A8,8,0,0,1,344,240Z" style="fill:#b46d2f"/></svg>