<svg id="Flat" xmlns="http://www.w3.org/2000/svg" viewBox="0 0 512 512"><path d="M488,304c0,128.13-103.87,184-232,184S24,432.13,24,304,127.87,24,256,24,488,175.87,488,304Z" style="fill:#ffc70d"/><path d="M256,456C133.254,456,32.839,404.679,24.611,287.724,24.25,293.179,24,298.616,24,304c0,128.13,103.87,184,232,184s232-55.87,232-184c0-5.384-.25-10.821-.611-16.276C479.161,404.679,378.746,456,256,456Z" style="fill:#f89f00"/><path d="M304,208v40a16,16,0,0,1-16,16h0a16,16,0,0,1-16-16,16,16,0,0,0-16-16h0a16,16,0,0,0-16,16v40a16,16,0,0,1-16,16h0a16,16,0,0,1-16-16V208Z" style="fill:#3db4d4"/><path d="M320,216H192a8,8,0,0,1,0-16H320a8,8,0,0,1,0,16Z" style="fill:#b46d2f"/><circle cx="288" cy="296" r="8" style="fill:#3db4d4"/><circle cx="288" cy="328" r="8" style="fill:#3db4d4"/><path d="M192,184a7.969,7.969,0,0,1-5.656-2.346c-7.539-7.537-13.149-7.537-20.688,0a8,8,0,0,1-11.312-11.321c13.765-13.777,29.547-13.777,43.312,0A8.007,8.007,0,0,1,192,184Z" style="fill:#b46d2f"/><path d="M352,184a7.969,7.969,0,0,1-5.656-2.346c-7.539-7.537-13.149-7.537-20.688,0a8,8,0,0,1-11.312-11.321c13.765-13.777,29.547-13.777,43.312,0A8.007,8.007,0,0,1,352,184Z" style="fill:#b46d2f"/></svg>