<?xml version="1.0" standalone="no"?>
<!DOCTYPE svg PUBLIC "-//W3C//DTD SVG 20010904//EN"
 "http://www.w3.org/TR/2001/REC-SVG-20010904/DTD/svg10.dtd">
<svg version="1.0" xmlns="http://www.w3.org/2000/svg" width="2134.000000pt" height="2134.000000pt" viewBox="0 0 2134.000000 2134.000000" preserveAspectRatio="xMidYMid meet"> <g transform="translate(0.000000,2134.000000) scale(0.100000,-0.100000)" fill="#000000" stroke="none"><path d="M10360 20663 c-146 -6 -457 -34 -639 -59 -1437 -193 -2874 -843 -4171 -1888 -648 -522 -1299 -1179 -1856 -1876 -2081 -2600 -3239 -6054 -2999 -8944 127 -1524 615 -2839 1459 -3931 372 -481 843 -941 1356 -1327 1476 -1108 3504 -1769 5925 -1933 779 -52 1676 -52 2465 1 3738 250 6487 1686 7832 4094 886 1586 1151 3597 763 5786 -370 2084 -1289 4175 -2606 5930 -1306 1741 -2918 3020 -4619 3664 -955 361 -1925 522 -2910 483z m790 -683 c1228 -96 2419 -526 3555 -1283 1352 -901 2575 -2243 3512 -3852 1437 -2469 2059 -5301 1663 -7580 -337 -1943 -1414 -3494 -3135 -4517 -1322 -786 -3018 -1256 -4970 -1378 -668 -41 -1578 -41 -2215 0 -2919 191 -5175 1113 -6587 2694 -860 963 -1391 2153 -1567 3515 -53 408 -61 540 -61 1091 0 508 5 622 41 985 123 1245 466 2527 1008 3767 570 1305 1326 2494 2251 3538 184 208 730 750 935 929 1491 1303 3080 2006 4750 2101 183 10 629 5 820 -10z"/></g>
</svg>
