<svg id="Flat" xmlns="http://www.w3.org/2000/svg" viewBox="0 0 512 512"><path d="M488,304c0,128.13-103.87,184-232,184S24,432.13,24,304,127.87,24,256,24,488,175.87,488,304Z" style="fill:#ffc70d"/><circle cx="248" cy="232" r="16" style="fill:#483d23"/><path d="M168,192a24.027,24.027,0,0,1-24-24,8,8,0,0,1,16,0,8,8,0,0,0,16,0,8,8,0,0,1,16,0A24.027,24.027,0,0,1,168,192Z" style="fill:#b46d2f"/><path d="M344,192a24.027,24.027,0,0,1-24-24,8,8,0,0,1,16,0,8,8,0,0,0,16,0,8,8,0,0,1,16,0A24.027,24.027,0,0,1,344,192Z" style="fill:#b46d2f"/><path d="M344,216c-12.166,0-88-16-88-16s24,32,32,48c5.06,10.119,24,48,56,48a40,40,0,0,0,40-40C384,233.909,368,216,344,216Z" style="fill:#3db4d4"/><path d="M256,456C133.254,456,32.839,404.679,24.611,287.724,24.25,293.179,24,298.616,24,304c0,128.13,103.87,184,232,184s232-55.87,232-184c0-5.384-.25-10.821-.611-16.276C479.161,404.679,378.746,456,256,456Z" style="fill:#f89f00"/></svg>