<svg id="Flat" xmlns="http://www.w3.org/2000/svg" viewBox="0 0 512 512"><path d="M488,304c0,128.13-103.87,184-232,184S24,432.13,24,304,127.87,24,256,24,488,175.87,488,304Z" style="fill:#ffc70d"/><path d="M256,456C133.254,456,32.839,404.679,24.611,287.724,24.25,293.179,24,298.616,24,304c0,128.13,103.87,184,232,184s232-55.87,232-184c0-5.384-.25-10.821-.611-16.276C479.161,404.679,378.746,456,256,456Z" style="fill:#f89f00"/><path d="M256,456C133.254,456,32.839,404.679,24.611,287.724,24.25,293.179,24,298.616,24,304c0,128.13,103.87,184,232,184s232-55.87,232-184c0-5.384-.25-10.821-.611-16.276C479.161,404.679,378.746,456,256,456Z" style="fill:#f89f00"/><path d="M256,456C133.254,456,32.839,404.679,24.611,287.724,24.25,293.179,24,298.616,24,304c0,128.13,103.87,184,232,184s232-55.87,232-184c0-5.384-.25-10.821-.611-16.276C479.161,404.679,378.746,456,256,456Z" style="fill:#f89f00"/><path d="M180,160c-11.046,0-20,8.6-20,19.2h0c0-10.6-8.954-19.2-20-19.2s-20,8.6-20,19.2S148.954,224,160,224s40-34.2,40-44.8S191.046,160,180,160Z" style="fill:#e42e3d"/><path d="M372,160c-11.046,0-20,8.6-20,19.2h0c0-10.6-8.954-19.2-20-19.2s-20,8.6-20,19.2S340.954,224,352,224s40-34.2,40-44.8S383.046,160,372,160Z" style="fill:#e42e3d"/><path d="M256,288a56.063,56.063,0,0,1-56-56,8,8,0,0,1,16,0,40,40,0,0,0,80,0,8,8,0,0,1,16,0A56.063,56.063,0,0,1,256,288Z" style="fill:#b46d2f"/><ellipse cx="112" cy="232" rx="24" ry="16" style="fill:#f597a4"/><ellipse cx="400" cy="232" rx="24" ry="16" style="fill:#f597a4"/></svg>