<svg id="Flat" xmlns="http://www.w3.org/2000/svg" xmlns:xlink="http://www.w3.org/1999/xlink" viewBox="0 0 512 512"><defs><linearGradient id="linear-gradient" x1="256" y1="488" x2="256" y2="24" gradientUnits="userSpaceOnUse"><stop offset="0" stop-color="#ffc70d"/><stop offset="0.996" stop-color="#4fb663"/></linearGradient></defs><path d="M488,304c0,128.13-103.87,184-232,184S24,432.13,24,304,127.87,24,256,24,488,175.87,488,304Z" style="fill:url(#linear-gradient)"/><path d="M256,456C133.254,456,32.839,404.679,24.611,287.724,24.25,293.179,24,298.616,24,304c0,128.13,103.87,184,232,184s232-55.87,232-184c0-5.384-.25-10.821-.611-16.276C479.161,404.679,378.746,456,256,456Z" style="fill:#f89f00"/><circle cx="344" cy="200" r="24" style="fill:#fff"/><circle cx="344" cy="200" r="8" style="fill:#483d23"/><circle cx="168" cy="200" r="24" style="fill:#fff"/><circle cx="168" cy="200" r="8" style="fill:#483d23"/><path d="M128,200a8,8,0,0,1,0-16c22.18,0,32.7-3.688,40.422-26.555a8,8,0,0,1,15.156,5.11C171.914,197.109,149.727,200,128,200Z" style="fill:#b46d2f"/><path d="M384,200c-21.727,0-43.914-2.891-55.578-37.445a8,8,0,0,1,15.156-5.11C351.3,180.312,361.82,184,384,184a8,8,0,0,1,0,16Z" style="fill:#b46d2f"/><path d="M324.1,305.133C318.883,302.016,304,290.719,304,280c0-10.633,14.9-22,20.109-25.141a8,8,0,0,0-8.211-13.726c-2.653,1.585-24.507,15.195-27.528,34.473-22,16.386-42.739,16.386-64.74,0-3.021-19.278-24.875-32.888-27.528-34.473a8,8,0,1,0-8.2,13.734C193.117,257.984,208,269.281,208,280c0,10.633-14.9,22-20.109,25.141a8,8,0,0,0,8.211,13.726c2.229-1.331,17.976-11.163,24.765-25.692,11.579,7.126,23.355,10.739,35.133,10.739s23.554-3.612,35.133-10.738c6.789,14.529,22.536,24.36,24.765,25.691a8,8,0,1,0,8.2-13.734Z" style="fill:#b46d2f"/></svg>