<svg id="Flat" xmlns="http://www.w3.org/2000/svg" viewBox="0 0 512 512"><path d="M488,304c0,128.13-103.87,184-232,184S24,432.13,24,304,127.87,24,256,24,488,175.87,488,304Z" style="fill:#ffc70d"/><path d="M256,456C133.254,456,32.839,404.679,24.611,287.724,24.25,293.179,24,298.616,24,304c0,128.13,103.87,184,232,184s232-55.87,232-184c0-5.384-.25-10.821-.611-16.276C479.161,404.679,378.746,456,256,456Z" style="fill:#f89f00"/><path d="M168,192a24.027,24.027,0,0,1-24-24,8,8,0,0,1,16,0,8,8,0,0,0,16,0,8,8,0,0,1,16,0A24.027,24.027,0,0,1,168,192Z" style="fill:#b46d2f"/><path d="M344,192a24.027,24.027,0,0,1-24-24,8,8,0,0,1,16,0,8,8,0,0,0,16,0,8,8,0,0,1,16,0A24.027,24.027,0,0,1,344,192Z" style="fill:#b46d2f"/><path d="M488.992,296.062l-128-16a7.624,7.624,0,0,0-.992.078V240a8.417,8.417,0,0,0,1.059-.069l120-16a8,8,0,0,0-2.118-15.86l-120,16a7.527,7.527,0,0,0-.945.326,15.932,15.932,0,0,0-14-8.4H168a15.932,15.932,0,0,0-14,8.4,7.527,7.527,0,0,0-.945-.326l-120-16a8,8,0,0,0-2.118,15.86l120,16A8.417,8.417,0,0,0,152,240v40.142a7.453,7.453,0,0,0-.992-.079l-128,16A8,8,0,0,0,23.988,312a8.727,8.727,0,0,0,1-.062l127.014-15.877A16,16,0,0,0,168,312H344a16,16,0,0,0,15.994-15.939l127.014,15.877a8.727,8.727,0,0,0,1,.062,8,8,0,0,0,.98-15.938Z" style="fill:#fff"/></svg>