<svg id="Flat" xmlns="http://www.w3.org/2000/svg" viewBox="0 0 512 512"><path d="M488,304c0,128.13-103.87,184-232,184S24,432.13,24,304,127.87,24,256,24,488,175.87,488,304Z" style="fill:#ffc70d"/><path d="M256,456C133.254,456,32.839,404.679,24.611,287.724,24.25,293.179,24,298.616,24,304c0,128.13,103.87,184,232,184s232-55.87,232-184c0-5.384-.25-10.821-.611-16.276C479.161,404.679,378.746,456,256,456Z" style="fill:#f89f00"/><path d="M184,192a8,8,0,0,1-8-8,8,8,0,0,0-16,0,8,8,0,0,1-16,0,24,24,0,0,1,48,0A8,8,0,0,1,184,192Z" style="fill:#b46d2f"/><path d="M360,192a8,8,0,0,1-8-8,8,8,0,0,0-16,0,8,8,0,0,1-16,0,24,24,0,0,1,48,0A8,8,0,0,1,360,192Z" style="fill:#b46d2f"/><path d="M368,216c0,53.019-50.144,96-112,96s-112-42.981-112-96Z" style="fill:#483d23"/></svg>