<svg id="Flat" xmlns="http://www.w3.org/2000/svg" viewBox="0 0 512 512"><path d="M488,304c0,128.13-103.87,184-232,184S24,432.13,24,304,127.87,24,256,24,488,175.87,488,304Z" style="fill:#ffc70d"/><path d="M256,456C133.254,456,32.839,404.679,24.611,287.724,24.25,293.179,24,298.616,24,304c0,128.13,103.87,184,232,184s232-55.87,232-184c0-5.384-.25-10.821-.611-16.276C479.161,404.679,378.746,456,256,456Z" style="fill:#f89f00"/><path d="M152,208a8,8,0,0,1,0-16c22.184,0,32.7-3.688,40.422-26.555a8,8,0,1,1,15.156,5.11C195.918,205.109,173.727,208,152,208Z" style="fill:#b46d2f"/><path d="M360,208c-21.727,0-43.918-2.891-55.578-37.445a8,8,0,1,1,15.156-5.11C327.3,188.312,337.816,192,360,192a8,8,0,0,1,0,16Z" style="fill:#b46d2f"/><path d="M288,272a8,8,0,0,1-8-8,24,24,0,0,0-48,0,8,8,0,0,1-16,0,40,40,0,0,1,80,0A8,8,0,0,1,288,272Z" style="fill:#b46d2f"/></svg>